<?xml version="1.0" encoding="utf-8"?>
<!-- Generator: Adobe Illustrator 19.1.0, SVG Export Plug-In . SVG Version: 6.00 Build 0)  -->
<svg version="1.1" id="Layer_1" xmlns="http://www.w3.org/2000/svg" xmlns:xlink="http://www.w3.org/1999/xlink" x="0px" y="0px"
	 viewBox="0 0 448.2 797.9" style="enable-background:new 0 0 448.2 797.9;" xml:space="preserve">
<style type="text/css">
	.st0{fill-rule:evenodd;clip-rule:evenodd;fill:none;stroke:#FFFFFF;stroke-width:3;stroke-miterlimit:10;}
	.st1{fill:none;stroke:#FFFFFF;stroke-width:3;stroke-miterlimit:10;}
	.st2{fill-rule:evenodd;clip-rule:evenodd;fill:none;stroke:#FFFFFF;stroke-width:3;stroke-linejoin:round;stroke-miterlimit:10;}
	.st3{fill-rule:evenodd;clip-rule:evenodd;fill:none;stroke:#FFFFFF;stroke-width:3;stroke-linecap:round;stroke-miterlimit:10;}
</style>
<g>
	<line class="st0" x1="179.1" y1="750" x2="179.1" y2="797.9"/>
	<line class="st0" x1="241.6" y1="797.9" x2="241.6" y2="750.3"/>
	<path class="st0" d="M173.7,740.6c0,6.9,5.6,12.5,12.5,12.5h48.9c6.9,0,12.5-5.6,12.5-12.5"/>
	<path class="st0" d="M149.9,679.6L148,727c-0.2,4.6,3,8.6,7.5,9.5l60.3,12.1l57.6-12.5c6.7-1.5,11.4-7.6,10.9-14.5l-11.7-170.5
		c-0.7-9.5-7.1-17.7-16.2-20.7L215,517c-3.1-1-6.3-1.6-9.5-1.8l-20.5-1.1l-17.5-0.9c-5.9-0.3-10.9,4.3-11.2,10.2"/>
	<path class="st0" d="M147.4,526.9c-0.1-1.6,1.3-3,3-2.9l28.5,1.6l37.4,2l25.8,8.8l5.9,145.6l-31.8,8.3l-67.6-7.5
		c-1.7-0.2-3-1.6-3-3.4l0,0c0-2,1.7-3.6,3.7-3.4l66.9,6.5l23.9-5.6l-5.3-136.9l-18.6-6.5l-66.1-3.9
		C148.6,529.5,147.5,528.3,147.4,526.9L147.4,526.9z"/>
	<path class="st0" d="M153.6,667.7"/>
	<path class="st0" d="M216.2,674.6"/>
	<polyline class="st0" points="239.8,669.4 215.9,674.6 152.4,669 148,676.1 	"/>
	<g>
		<polyline class="st1" points="158.8,529.9 154.6,536.3 158.2,543.1 154,549.5 157.7,556.3 153.5,562.8 157.1,569.5 152.9,576 
			156.6,582.8 152.4,589.2 156.1,596 151.9,602.4 155.5,609.2 151.3,615.6 155,622.4 150.8,628.9 154.4,635.6 150.2,642.1 
			153.9,648.9 149.7,655.3 153.3,662.1 149.1,668.6 		"/>
	</g>
	<g>
		<polyline class="st1" points="216.4,533.9 212.2,540.4 215.9,547.2 211.7,553.7 215.3,560.5 211.1,567 214.8,573.8 210.6,580.3 
			214.3,587.1 210.1,593.6 213.7,600.4 209.5,606.9 213.2,613.7 209,620.2 212.6,627 208.4,633.5 212.1,640.3 207.9,646.8 
			211.6,653.6 207.4,660.1 211,667 206.8,673.5 		"/>
	</g>
	<line class="st0" x1="216.2" y1="540.1" x2="235" y2="545.6"/>
	<line class="st0" x1="212.5" y1="546.7" x2="235" y2="552"/>
	<line class="st0" x1="211.6" y1="560.3" x2="235.7" y2="563.9"/>
	<line class="st0" x1="215.3" y1="554" x2="235.4" y2="557.7"/>
	<line class="st0" x1="214.5" y1="566.9" x2="235.9" y2="569.1"/>
	<line class="st0" x1="210.8" y1="573.8" x2="235.9" y2="575.6"/>
	<line class="st0" x1="214.5" y1="580.3" x2="236.4" y2="581.5"/>
	<line class="st0" x1="210.8" y1="586.9" x2="236.6" y2="587.8"/>
	<line class="st0" x1="213.6" y1="593.7" x2="236.8" y2="593.7"/>
	<line class="st0" x1="210" y1="600.3" x2="236.5" y2="599.9"/>
	<line class="st0" x1="213.3" y1="607.1" x2="237.3" y2="606.4"/>
	<line class="st0" x1="209.3" y1="613.6" x2="237.6" y2="612.3"/>
	<line class="st0" x1="213" y1="620.2" x2="237.8" y2="618.7"/>
	<line class="st0" x1="208.8" y1="627" x2="238" y2="624.6"/>
	<line class="st0" x1="212.3" y1="634" x2="238.3" y2="631.6"/>
	<line class="st0" x1="208.3" y1="640.3" x2="238.9" y2="637"/>
	<line class="st0" x1="211.6" y1="647" x2="238.8" y2="643.8"/>
	<line class="st0" x1="208.3" y1="653.6" x2="238.8" y2="649.7"/>
	<line class="st0" x1="210.9" y1="660.2" x2="239.3" y2="656"/>
	<line class="st0" x1="207.3" y1="666.9" x2="239.3" y2="662"/>
	<polyline class="st0" points="165,616.5 163.1,660.1 197.9,662.9 201.7,541.9 168.1,540.1 165.9,589.4 	"/>
	<polyline class="st0" points="173.6,586.8 192,587.8 190,651.8 172.2,650.3 173.3,615.9 	"/>
	<g>
		<circle class="st0" cx="185.6" cy="560.6" r="10"/>
		<circle class="st0" cx="181.1" cy="560.3" r="10"/>
	</g>
	<polygon class="st2" points="191,587.8 179.4,590.1 162.6,589.2 173.6,586.8 	"/>
	<polyline class="st0" points="162.6,589.2 161.5,615.2 178.1,616.2 179.4,590.1 	"/>
	<polyline class="st0" points="179.1,616.2 190.9,615 192,587.8 	"/>
	<polyline class="st0" points="215.8,748.7 216.2,690.3 216.2,682.6 	"/>
	<line class="st0" x1="216.3" y1="527.6" x2="210" y2="515.8"/>
	<line class="st0" x1="256.4" y1="530.4" x2="250.9" y2="507.6"/>
	<path class="st0" d="M270.1,485.1c-6.1,17.9-23,29.4-40.5,26.4c-11.6-2-20.9-10-25.7-20.7c-2.7-6.1-3.8-12.9-3.2-19.6
		c0.6-7.4,2.2-26.3,5.8-45.8l-27.4,0.2l-6.6,41.1c-1.5,9.2,0.6,18.7,5.8,26.5l1.1,1.7"/>
	<path class="st0" d="M270.1,486l25.7-72.7l-29.5-13.6c-14.2-6.5-26.9-16-36.9-27.9c-12.6-15.1-20.5-33.2-21.6-53l-1.1-20.4
		c-0.3-5.1-4.6-9-9.6-8.7v0c-5.2,0.2-9.2,4.7-8.8,9.9l1,13.1c3.2,42.9,32.4,79.5,73.5,92.1c9.7,3,20.7,5.9,33,8.6"/>
	<path class="st0" d="M204.4,438.1h-3.8c-9.6,0-17.7,7.2-18.9,16.7c-1.6,13.2-3.2,33.5-2.3,59.1"/>
	<line class="st0" x1="202.6" y1="451.9" x2="182.4" y2="451.4"/>
	<line class="st0" x1="200.7" y1="471.2" x2="180.1" y2="470.3"/>
	<line class="st0" x1="206.4" y1="495.4" x2="205.7" y2="515.3"/>
	<path class="st0" d="M253.7,506.4c0,0-18.9,11.3-28.7-10.6c-9.8-21.9,0.6-50.6,7.6-91.5"/>
	
		<ellipse transform="matrix(-0.9951 -9.906102e-02 9.906102e-02 -0.9951 452.5589 965.4207)" class="st0" cx="250.2" cy="471.5" rx="22.1" ry="32.8"/>
	
		<ellipse transform="matrix(-0.9951 -9.906019e-02 9.906019e-02 -0.9951 452.5593 965.4205)" class="st0" cx="250.2" cy="471.5" rx="11.9" ry="17.7"/>
	<path class="st0" d="M179.3,510l-1.1-0.5c-16-6.6-25.6-23-23.5-40.2l8-64.4"/>
	<path class="st0" d="M205.9,294.9l-3.3,0.1c-4.3,0.1-7.6,3.8-7.4,8l0.3,5.5c2.3,40,26.8,75.4,63.4,91.6
		c10.9,4.8,23.2,9.1,36.8,12.2"/>
	<g>
		<path class="st3" d="M252,405.4l-18-8.8c-23.2-11.3-41.4-30.9-50.4-55.1c-2.9-7.8-4.8-16-5.4-24l-1.4-19.4c-0.3-4.8-3.9-8.4-8-8.1
			l0,0c-4.2,0.3-7.4,4.7-6.9,9.6L163,312c3.7,40.8,28.1,73.3,62.1,86.3c7.5,2.9,14,6.4,25.9,6.7"/>
		<path class="st3" d="M118.9,101.5l2.7-8.3c5.7-17.3,19.4-30.7,36.8-36l69.5-10.3c30.1-4.5,60.7,3.8,84.6,22.8
			c9.6,7.7,19.4,16.4,29.8,27.5c22,23.5,31.8,56.6,24.2,87.9c5.4,13.1-2,24.1-2,24.1c5.4,12.2-2.8,22.7-2.8,22.7
			c5.7,12.1-3,18.3-3,18.3c7.7,13.6-2.7,25.1-2.7,25.1c4.3,16.3-4.8,25.1-4.8,25.1c5.4,13.5-3.5,24.4-3.5,24.4
			c4.8,15.1-5.2,23.8-5.2,23.8c0.2,3.3,0.2,6.6,0.1,9.7c-1,26.5-20.2,48.7-46.1,54c-0.1,0-0.3,0.1-0.4,0.1l-44-7.1
			c-11.1-2.7-21.1-6.5-30.1-10.9c-30.1-14.6-50.8-47.7-53.7-85.6l-0.4-5.2c-0.3-4.1,2.3-7.6,5.8-7.8l2.6-0.2"/>
	</g>
	<g>
		<path class="st3" d="M226.3,404.5l-15.2-7.2c-26.3-12.5-46.1-35.6-53.8-63.6c-1.3-4.7-2.3-9.6-2.8-14.4l-2.1-19.3
			c-0.5-4.8-4-8.3-7.7-7.8l0,0c-3.9,0.5-6.6,4.9-6,9.9l1.6,12.3c4.2,42.5,27.3,71.5,57.5,85c10.8,4.8,19.1,3.2,28.4,5.2"/>
		<path class="st3" d="M252,405.4l-25.7-0.8c-10.3-2.3-19.8-5.7-28.2-9.8c-28.4-13.5-48.9-45.8-53.2-83.6l-0.6-5.2
			c-0.5-4,1.8-7.7,5-8l2.4-0.3"/>
	</g>
	<g>
		<path class="st3" d="M201.6,404.4l-6.7-2.2c-21.8-7.2-40.2-22.4-51-42.7c-6-11.3-10.4-23.8-12-36.1l-2.5-19.3
			c-0.6-4.8-4-8.2-7.5-7.7h0c-3.6,0.5-6.1,5-5.3,10l1.8,12.3c5.9,40.5,29.5,73.3,59.4,82.6c7,2.2,14.8,1.4,23.6,3.2"/>
		<path class="st3" d="M128.7,301.7l-2.3,0.3c-3,0.4-5,4-4.5,8.1l0.7,5.2c5,37.7,25.1,69.7,52.1,82.6c8.1,3.9,15.1,4.4,24.9,6.5"/>
	</g>
	<g>
		<path class="st3" d="M176.1,404.7L164,399c-19.8-9.3-35.8-25.2-44.9-45c-4.1-8.8-7.1-18.3-8.5-27.8l-2.8-18.1
			c-0.7-4.5-3.8-7.7-6.9-7.1h0c-3.2,0.6-5.2,4.9-4.5,9.5l2,11.6c6.4,38.1,28.4,68.7,55.3,76.9c6.3,1.9,12.4,4.4,20.2,5.9"/>
		<path class="st3" d="M107.1,305.8l-2,0.3c-2.7,0.4-4.3,3.9-3.8,7.7l0.8,4.9c5.6,35.5,24.3,65.3,48.8,77.1
			c7.3,3.5,15.4,7.1,24.1,8.9"/>
	</g>
	<g>
		<path class="st3" d="M155.2,403.8l-5.5-2.1C120,390.2,98.1,364.2,92.4,333c-0.1-0.4-0.2-0.9-0.2-1.3c-0.1-0.5-0.2-0.9-0.2-1.4
			l-2.6-16.8c-0.2-1.1-0.5-2.2-1-3.1c-1.6-3.1-6-3-7.5,0.1c-1,2-1.8,4.6-1.5,6.7l0.2,11c6,35.4,27.3,61.9,52.2,69.6
			c5.8,1.8,12.4,3.8,19.7,5.2"/>
		<path class="st3" d="M88.7,311.3l-1.9,0.3c-2.5,0.4-4,3.6-3.5,7.1l0.7,4.5c5.2,32.9,22.6,60.6,45.3,71.6c6.8,3.3,14.3,6,22.4,7.7"
			/>
	</g>
	<g>
		<path class="st3" d="M226,404.6l-63.4,0.5l-14.3-2.6c-37.3-6.9-66.6-39.7-68.5-78.5c-0.1-1.1-0.5-2.3-0.5-3.4
			c-0.1-11.7,0.8-23.2,4.8-31.2c0,0,106.6-49.4,205.7,10.4l0,0c2.9,1.8,6.6,0.1,7.2-3.2l0.8-4.5c0.4-2-0.6-4-2.4-5l-9.2-5.1
			c-35.1-19.6-75.2-28.5-115.2-25.4c-25.1,1.9-51.5,7.1-75.5,14.3c-7,2.1-10.8,9.5-8.3,16.3c0.1,0.2,0.2,0.4,0.3,0.7"/>
		<path class="st3" d="M91.1,286.5l0.9-4.2c0.8-4.1,3.9-7.3,7.9-8.4c20.6-5.8,73.1-18.9,119.4-10.3c43.6,8.1,64.9,21.7,70.6,25.9
			c1,0.7,1.5,2,1.4,3.2l-0.8,7.2"/>
	</g>
	<g>
		<path class="st3" d="M293.8,273.8L293.8,273.8c2.9,1.8,6.6,0.1,7.2-3.2l0.8-4.5c0.4-2-0.6-4-2.4-5l-9.2-5.1
			c-35.1-19.6-75.2-28.5-115.2-25.4c-25.1,1.9-51.5,7.1-75.5,14.3c-7,2.1-10.9,9.7-8.3,16.5c0.1,0.2,0.1,0.3,0.2,0.5"/>
		<path class="st3" d="M84.1,289.4c0,0-4.4-17.2,4-26c0,0,106.6-49.4,205.7,10.4"/>
		<path class="st3" d="M95.1,260.5l0.9-4.2c0.8-4.1,3.9-7.3,7.9-8.4c20.6-5.8,73.1-18.9,119.4-10.3c43.6,8.1,64.9,21.7,70.6,25.9
			c1,0.7,1.5,2,1.4,3.2l-0.8,7.2"/>
	</g>
	<g>
		<path class="st3" d="M297.4,248.9L297.4,248.9c2.9,1.8,6.6,0.1,7.2-3.2l0.8-4.5c0.4-2-0.6-4-2.4-5l-9.2-5.1
			c-35.1-19.6-75.2-28.5-115.2-25.4c-25.1,1.9-51.5,7.1-75.5,14.3c-7,2.1-10.9,9.7-8.3,16.5c0.1,0.2,0.1,0.3,0.2,0.5"/>
		<path class="st3" d="M297.4,248.9c-99-59.8-205.7-10.4-205.7-10.4s-9,9.7-3.7,24.9"/>
		<path class="st3" d="M98.8,235.6l0.9-4.2c0.8-4.1,3.9-7.3,7.9-8.4c20.6-5.8,73.1-18.9,119.4-10.3c43.6,8.1,64.9,21.7,70.6,25.9
			c1,0.7,1.5,2,1.4,3.2l-0.8,7.2"/>
	</g>
	<g>
		<path class="st3" d="M301.8,223.2L301.8,223.2c2.9,1.8,6.6,0.1,7.2-3.2l0.8-4.5c0.4-2-0.6-4-2.4-5l-9.2-5.1
			c-35.1-19.6-75.2-28.5-115.2-25.4c-25.1,1.9-51.5,7.1-75.5,14.3c-7,2.1-10.9,9.7-8.3,16.5c0.1,0.2,0.1,0.3,0.2,0.5"/>
		<path class="st3" d="M91.8,238.5c0,0-1.7-4.4-0.7-11.5c1.2-8.3,7-15.3,14.9-18.1c28.5-10.4,114.8-34.7,195.9,14.3"/>
		<path class="st3" d="M103.2,209.9l0.9-4.2c0.8-4.1,3.9-7.3,7.9-8.4c20.6-5.8,73.1-18.9,119.4-10.3c43.6,8.1,64.9,21.7,70.6,25.9
			c1,0.7,1.5,2,1.4,3.2l-0.8,7.2"/>
	</g>
	<g>
		<path class="st3" d="M305.6,198.6L305.6,198.6c2.9,1.8,6.6,0.1,7.2-3.2l0.8-4.5c0.4-2-0.6-4-2.4-5l-9.2-5.8
			c-42.9-24.1-67.2-29.8-115.2-26.3c-25.1,1.9-51.5,7.3-75.5,14.5c-7,2.1-10.9,9.7-8.3,16.5c0.1,0.2,0.1,0.3,0.2,0.5"/>
		<path class="st3" d="M97,214.7c0,0-6.6-15.9,6.5-29.1c0,0,59.4-24.7,127.5-17.1c21.1,2.8,53.3,17.3,74.6,30.1"/>
		<path class="st3" d="M107,184.1l0.9-4.2c0.8-4.1,3.9-7.3,7.9-8.4c17-4.8,58.5-13.5,99.4-13.4c15.2,0.1,30.3,2.5,44.6,7.8
			c26.7,9.9,40.2,18.2,46,22.4c1,0.7,1.5,2,1.4,3.2l-0.8,7.2"/>
	</g>
	<g>
		<path class="st3" d="M308.8,173.5L308.8,173.5c2.9,1.7,6.6,0.7,7.2-2.6l0.8-4.5c0.4-2-0.6-4.6-2.4-5.6l-11.8-7.5
			c-44.7-26.3-57.3-30-112.8-24.3c-25.1,2.6-51.5,6.4-75.5,13.7c-7,2.1-10.8,10.6-8.2,17.4c0.1,0.2,0.1,0.3,0.2,0.5"/>
		<path class="st3" d="M106.4,160.5c0,0,58.6-23.1,134.8-17.5c21.1,2.6,46.3,17.8,67.6,30.5"/>
		<path class="st3" d="M110.1,159.2l0.9-4.2c0.8-4.1,3.8-7.3,7.8-8.5c17-4.9,58.5-13,99.3-13.2c15.2,0,26-0.8,40.3,4.3
			c25.1,10.2,44.6,21.8,50.4,26.1c1,0.7,1.5,2,1.4,3.2l-0.8,6.6"/>
	</g>
	<g>
		<path class="st3" d="M313.2,150.2L313.2,150.2c2.8,1.8,6.6,0.8,7.2-2.5l0.9-4.5c0.4-2-0.5-4.7-2.3-5.7l-11.6-7.7
			c-45.9-28-55.2-31.4-112.4-26.4c-25.1,2.2-51.6,6.9-75.7,13.8c-7,2-9.7,9.6-7.2,16.4c0.1,0.2-1.1,0.3-1.1,0.5"/>
		<path class="st3" d="M111.7,134.1c2.7-0.8,63.9-22.2,137.2-15.8c21,2.9,43.3,18.9,64.4,31.9"/>
		<path class="st3" d="M114.8,132.9l0.9-4.2c0.9-4.1,3.9-7.4,8-8.3c24.3-5.5,44.5-11.2,99.9-13.3c14.8-0.6,24-0.6,38.6,4.9
			c24.9,10.6,45.5,24.2,51.2,28.5c1,0.7,1.5,2,1.4,3.2l-0.9,6.6"/>
	</g>
	<g>
		<path class="st3" d="M117.9,109.3c-0.1-9.9,4-15.9,10.2-17.5c24.3-6.3,53.9-13.1,79-15.1c57.2-4.7,57.3,0.2,103.1,28.5l11.6,8.1
			c1.8,1,2.6,4,2.2,6l-0.9,3.6c-0.7,3.3-4.4,4.6-7.2,2.8"/>
		<path class="st3" d="M104.1,163.4c0,0-2.9-17.5,7.1-29.2c0,0-4.4-15.1,7.4-24.9c0,0,67.5-22.2,134.5-15.6
			c21,3.1,41.8,18.8,62.8,32"/>
		<path class="st3" d="M121.9,107.8l1.1-5c0.6-2.8,2.7-5.1,5.5-5.8c19.1-5.1,54-13,95.3-15c15.2-0.7,28-1.3,42.2,4.2
			c25.4,12.8,44.4,25.1,50.1,29.5c1,0.8,1.5,2.3,1.3,3.5l-0.9,5.9"/>
	</g>
	<path class="st3" d="M103,184.8c0,0-6.5-10.7,3.1-24.8"/>
	<g>
		<path class="st0" d="M345.1,346c0,0,5.7-8.8-2.1-17.8c-5.1-5.9-14.2-14.3-19.8-19.3c-2-1.8-5.3-0.6-5.6,2.1l-0.6,4.4
			c-0.3,2.7,0.7,5.3,2.7,7.1c6.1,5.3,18.9,17,23,26.2L345.1,346z"/>
		<path class="st0" d="M339.5,342.7c0,0,10.8-6-22.4-29.6"/>
	</g>
	<g>
		<path class="st0" d="M349.6,322.4c0,0,5.7-8.8-2.1-17.8c-5.1-5.9-14.2-14.3-19.8-19.3c-2-1.8-5.3-0.6-5.6,2.1l-0.6,4.4
			c-0.3,2.7,0.7,5.3,2.7,7.1c6.1,5.3,18.9,17,23,26.2L349.6,322.4z"/>
		<path class="st0" d="M344,319c0,0,10.8-6-22.4-29.6"/>
	</g>
	<g>
		<path class="st0" d="M353.1,297.7c0,0,5.7-8.8-2.1-17.8c-5.1-5.9-14.2-14.3-19.8-19.3c-2-1.8-5.3-0.6-5.6,2.1l-0.6,4.4
			c-0.3,2.7,0.7,5.3,2.7,7.1c6.1,5.3,18.9,17,23,26.2L353.1,297.7z"/>
		<path class="st0" d="M347.5,294.4c0,0,10.8-6-22.4-29.6"/>
	</g>
	<g>
		<path class="st0" d="M357.9,272.8c0,0,5.3-8.7-2.4-17.6c-5.1-5.9-14.1-14.2-19.6-19.1c-2-1.8-5.2-0.6-5.6,2.1l-0.6,4.4
			c-0.3,2.6,0.7,5.3,2.7,7c6,5.2,18.7,16.9,23.2,25.9L357.9,272.8z"/>
		<path class="st0" d="M351.9,269.6c0,0,10.7-5.9-22.2-29.3"/>
	</g>
	<g>
		<path class="st0" d="M366.6,201.3c0,0,5.3-8.1-1.9-16.3c-4.7-5.5-13.1-13.2-18.2-17.8c-1.9-1.7-4.8-0.6-5.2,1.9l-0.5,4.1
			c-0.3,2.4,0.6,4.9,2.5,6.5c5.6,4.8,19,16.8,22.8,25.3L366.6,201.3z"/>
		<path class="st0" d="M361.5,198.2c0,0,9.9-5.5-20.6-27.2"/>
	</g>
	<g>
		<path class="st0" d="M367.8,177.3l-1.3,2.9c-3.8-8.4-16.4-19.6-22-24.5c-1.9-1.6-2.8-4.1-2.5-6.5l0.5-4.1c0.3-2.5,3.3-3.6,5.2-1.9
			c5.1,4.6,13.5,12.3,18.2,17.8l0,0c1.9,1.6,3,4,2.7,6.5L367.8,177.3z"/>
		<path class="st0" d="M362.6,174.2c0,0,9.9-5.5-20.6-27.2"/>
	</g>
	<g>
		<path class="st0" d="M360.9,247.5c0,0,5.7-8.7-2-17.6c-5.1-5.9-14.1-14.2-19.6-19.1c-2-1.8-5.2-0.6-5.6,2.1l-0.6,4.4
			c-0.3,2.6,0.7,5.3,2.7,7c6,5.2,18.7,16.9,22.8,25.9L360.9,247.5z"/>
		<path class="st0" d="M355.3,244.3c0,0,10.7-5.9-22.2-29.3"/>
		<path class="st0" d="M363.6,208.7c-5.1-5.9-14.1-14.2-19.6-19.1c-2-1.8-5.2-0.6-5.6,2.1l-0.6,4.4c-0.3,2.6,0.7,5.3,2.7,7
			c4.6,4,18.6,18,22.2,25.9"/>
		<path class="st0" d="M359.8,223.3c0,0,8.6-9.7-21.2-30.6"/>
	</g>
</g>
</svg>
