<?xml version="1.0" standalone="no"?>
<!DOCTYPE svg PUBLIC "-//W3C//DTD SVG 20010904//EN"
 "http://www.w3.org/TR/2001/REC-SVG-20010904/DTD/svg10.dtd">
<svg version="1.0" xmlns="http://www.w3.org/2000/svg"
 width="565.000000pt" height="565.000000pt" viewBox="0 0 565.000000 565.000000"
 preserveAspectRatio="xMidYMid meet">
<metadata>
Created by potrace 1.11, written by Peter Selinger 2001-2013
</metadata>
<g transform="translate(0.000000,565.000000) scale(0.100000,-0.100000)"
fill="#000000" stroke="none">
<path d="M3 2823 l0 -2823 2824 0 2823 0 0 2823 0 2824 -2823 0 -2824 0 0
-2824z m5464 2633 c7 -7 7 -5265 0 -5272 -3 -4 -1192 -7 -2641 -8 -2337 -1
-2636 1 -2636 14 -1 20 -1 5219 0 5247 0 20 6 22 63 25 112 5 5208 0 5214 -6z"/>
<path d="M2587 4694 c-2 -2 -32 -7 -67 -9 -166 -13 -405 -64 -595 -127 -140
-46 -385 -161 -385 -180 0 -7 38 -140 85 -296 47 -155 85 -284 85 -287 0 -3
37 14 83 39 152 82 365 157 532 186 39 7 78 14 87 16 101 17 317 23 421 11
301 -35 499 -189 556 -432 18 -78 20 -91 23 -168 l3 -72 -45 -1 c-149 -4 -373
-15 -415 -19 -156 -16 -327 -41 -385 -55 -19 -5 -46 -11 -60 -14 -94 -17 -257
-65 -376 -112 -555 -218 -856 -621 -857 -1149 -1 -421 216 -780 583 -965 55
-28 188 -77 235 -86 140 -29 192 -33 350 -30 94 3 186 7 205 11 37 7 55 10
105 20 64 13 237 76 312 114 155 78 268 167 387 306 24 28 37 29 42 2 1 -7 5
-30 9 -52 3 -22 8 -47 10 -55 2 -8 7 -35 10 -60 3 -25 12 -80 20 -124 8 -43
15 -80 15 -82 0 -2 185 -4 411 -4 l411 0 -6 43 c-4 24 -9 55 -11 68 -10 60
-14 100 -20 179 -4 47 -9 103 -11 125 -3 22 -7 445 -9 940 -3 915 -6 1052 -31
1185 -30 164 -42 211 -90 337 -122 321 -336 545 -644 676 -88 37 -231 78 -335
96 -33 5 -76 13 -95 17 -39 7 -536 15 -543 8z m845 -1927 c7 -21 2 -570 -6
-624 -9 -62 -76 -199 -130 -268 -132 -168 -342 -271 -566 -280 -236 -10 -414
84 -496 260 -41 89 -53 156 -50 275 7 223 117 386 332 494 63 31 190 78 248
91 121 27 205 40 336 52 36 3 66 6 67 7 1 0 60 2 131 3 93 1 131 -2 134 -10z"/>
</g>
</svg>
