<?xml version="1.0" encoding="utf-8"?>
<!-- Generator: Adobe Illustrator 19.2.0, SVG Export Plug-In . SVG Version: 6.00 Build 0)  -->
<svg version="1.1" id="Layer_1" xmlns="http://www.w3.org/2000/svg" xmlns:xlink="http://www.w3.org/1999/xlink" x="0px" y="0px"
	 viewBox="0 0 1987.5 227.1" style="enable-background:new 0 0 1987.5 227.1;" xml:space="preserve">
<style type="text/css">
	.st0{fill:#FFFFFF;}
</style>
<g>
	<g>
		<path class="st0" d="M39.2,86.8L37,84.6c-6.6-6.6-9.9-15.3-9.9-23.9s3.3-17.2,9.9-23.8S52.2,27,60.9,27s17.3,3.3,23.8,9.9
			l59.2,59.2l18.8-18.8l0.4-0.4l-0.4-0.4L104,17.8C98.2,12.1,91.4,7.5,83.9,4.5C76.5,1.5,68.8,0,61,0C45,0,29.3,6.5,17.9,17.8
			C12.1,23.6,7.5,30.4,4.5,37.9c-3,7.3-4.5,15-4.5,22.9v0.1V61c0,7.9,1.5,15.6,4.5,22.9c3,7.6,7.5,14.3,13.3,20.1l1.6,1.6l0.4,0.4
			l0.4-0.4L39.2,86.8z"/>
		<path class="st0" d="M187.4,139.8l2.2,2.2c6.6,6.6,9.9,15.3,9.9,23.9c0,8.6-3.3,17.2-9.9,23.8c-6.6,6.6-15.2,9.9-23.9,9.9
			s-17.3-3.3-23.8-9.9l-59.2-59.3L64,149.2l-0.4,0.4L64,150l58.7,58.7c5.8,5.8,12.5,10.3,20.1,13.4c7.4,3,15,4.5,22.9,4.5
			c16,0,31.7-6.5,43.1-17.8c5.8-5.8,10.3-12.5,13.3-20.1c3-7.3,4.5-15,4.5-22.9v-0.1v-0.1c0-7.9-1.5-15.6-4.5-22.9
			c-3.1-7.5-7.6-14.3-13.3-20.1l-1.6-1.6l-0.4-0.4l-0.4,0.4L187.4,139.8z"/>
		<path class="st0" d="M122.6,17.8l-1.6,1.6l-0.4,0.4l0.4,0.4L139.8,39l2.2-2.2c6.6-6.6,15.3-9.9,23.9-9.9c8.6,0,17.2,3.3,23.8,9.9
			s9.9,15.2,9.9,23.9c0,8.6-3.3,17.3-9.9,23.8l-59.2,59.2l18.8,18.9l0.4,0.4l0.4-0.4l58.7-58.7c5.8-5.8,10.3-12.5,13.3-20.1
			c3-7.3,4.5-15,4.5-22.9c0-16-6.5-31.8-17.8-43.1C203,12,196.3,7.5,188.7,4.5c-7.3-3-15-4.5-22.9-4.5h-0.1h-0.1
			c-7.9,0-15.6,1.5-22.9,4.5C135.2,7.6,128.4,12.1,122.6,17.8z"/>
		<path class="st0" d="M103.9,208.7l1.6-1.6l0.4-0.4l-0.4-0.4l-18.8-18.8l-2.2,2.2c-6.6,6.6-15.3,9.9-23.9,9.9s-17.2-3.3-23.8-9.9
			c-6.6-6.6-9.9-15.2-9.9-23.9c0-8.6,3.3-17.2,9.9-23.8L96,82.8L77.4,64L77,63.6L76.5,64l-58.7,58.6c-5.8,5.8-10.3,12.6-13.3,20.1
			c-3,7.4-4.5,15-4.5,22.9c0,16,6.5,31.7,17.8,43.1c5.8,5.8,12.5,10.3,20.1,13.3c7.3,3,15,4.5,22.9,4.5h0.1H61
			c7.9,0,15.6-1.5,22.9-4.5C91.4,219,98.2,214.5,103.9,208.7z"/>
	</g>
</g>
<g>
	<path class="st0" d="M493.6,41.1l-37.6,44.6c-13.7-17.6-34.2-29.1-52.4-29.1c-29.8,0-52.4,24.1-52.4,56.6s22.6,56.8,52.4,56.8
		c17,0,37.4-10,52.4-25.4l37.6,40.2c-23.9,25.7-60,42.4-93.3,42.4c-66.8,0-116.2-48.3-116.2-113.3c0-64,50.2-111.4,118.3-111.4
		C435.7,2.2,471.4,17.2,493.6,41.1z"/>
	<path class="st0" d="M609.7,3.9c71.3,0,118.3,43.7,118.3,109.8S680,223.9,607.6,223.9h-94.2V3.9H609.7z M578.6,173h32.8
		c29.8,0,49.8-23.3,49.8-58.3c0-35.5-21.8-58.9-53.1-58.9h-29.8V173H578.6z"/>
	<path class="st0" d="M905.6,224.1l-93.1-122.5v122.5h-60V3.9h55.9l93.3,123.1V3.9h59.6v219.9h-55.7V224.1z"/>
	<path class="st0" d="M1057.6,188.8l-13.3,35.2h-67.2l93.8-219.9h67.2l90.7,219.9h-69.6l-12.8-35.2H1057.6z M1102.6,69.2l-27,71.8
		h53.3L1102.6,69.2z"/>
	<path class="st0" d="M1426.9,26.6l-24.1,50.2c-22.6-12.8-54.6-24.4-73.1-24.4c-11.1,0-18.3,3.7-18.3,12
		c0,32.4,114.9,13.3,114.9,92.7c0,46.8-41.3,69-90.7,69c-37.4,0-78.1-13.3-105.7-34.8l24.6-49.6c22.6,19.1,59.4,33.5,82,33.5
		c13.7,0,22.6-4.8,22.6-14.8c0-33.3-114.9-12.2-114.9-89.8c0-42.4,36.1-69.4,90.9-69.4C1368.7,1.1,1403,11.1,1426.9,26.6z"/>
	<path class="st0" d="M1575.1,224.1h-65.3v-68.5L1429.1,3.9h65.3l48.1,89.8l46.8-89.8h65l-79.2,150.3V224.1z"/>
	<path class="st0" d="M1670.6,224.1V3.9h65.3v219.9h-65.3V224.1z"/>
	<path class="st0" d="M1869.2,3.9c71.3,0,118.3,43.7,118.3,109.8s-48.1,110.1-120.5,110.1h-94.2V3.9H1869.2z M1838.1,173h33.1
		c29.8,0,49.8-23.3,49.8-58.3c0-35.5-21.8-58.9-53.1-58.9h-29.8V173z"/>
</g>
</svg>
